<svg xmlns="http://www.w3.org/2000/svg" xmlns:xlink="http://www.w3.org/1999/xlink" width="300" zoomAndPan="magnify" viewBox="0 0 224.87999 74.999997" height="100" preserveAspectRatio="xMidYMid meet" version="1.2"><defs><clipPath id="18b762459d"><path d="M 11.496094 18.640625 L 50.476562 18.640625 L 50.476562 55 L 11.496094 55 Z M 11.496094 18.640625 "/></clipPath><clipPath id="b0214ced47"><path d="M 23 42 L 32 42 L 32 56.121094 L 23 56.121094 Z M 23 42 "/></clipPath></defs><g id="1d06e3ee6d"><g clip-rule="nonzero" clip-path="url(#18b762459d)"><path style=" stroke:none;fill-rule:nonzero;fill:#0f766e;fill-opacity:1;" d="M 39.613281 29.53125 C 35.574219 33.792969 31.539062 38.054688 27.460938 42.359375 C 31.867188 46.28125 36.234375 50.171875 40.660156 54.113281 C 40.753906 53.84375 40.824219 53.671875 40.875 53.492188 C 43.480469 43.949219 46.078125 34.40625 48.691406 24.867188 C 49.261719 22.785156 49.878906 20.71875 50.476562 18.640625 L 11.496094 37.816406 C 11.777344 37.917969 11.941406 37.992188 12.117188 38.035156 C 15.460938 38.851562 19.34375 39.765625 22.675781 40.621094 Z M 39.613281 29.53125 "/></g><g clip-rule="nonzero" clip-path="url(#b0214ced47)"><path style=" stroke:none;fill-rule:nonzero;fill:#0f766e;fill-opacity:1;" d="M 26.242188 44.183594 L 31.140625 48.542969 L 26.242188 56.019531 L 23.046875 42.800781 L 23.332031 42.933594 L 26.242188 54.953125 Z M 26.242188 44.183594 "/></g><g style="fill:#0f766e;fill-opacity:1;"><g transform="translate(62.156073, 52.447235)"><path style="stroke:none" d="M 1.859375 -28.484375 C 2.828125 -28.484375 4.375 -28.53125 6.5 -28.625 C 8.625 -28.71875 10.554688 -28.765625 12.296875 -28.765625 C 15.910156 -28.765625 18.488281 -28.046875 20.03125 -26.609375 C 21.570312 -25.171875 22.34375 -23.164062 22.34375 -20.59375 C 22.34375 -19.050781 21.804688 -17.660156 20.734375 -16.421875 C 19.671875 -15.191406 18.269531 -14.269531 16.53125 -13.65625 C 17.550781 -11.914062 18.507812 -10.285156 19.40625 -8.765625 C 20.300781 -7.242188 20.945312 -6.113281 21.34375 -5.375 C 21.75 -4.644531 22.117188 -3.988281 22.453125 -3.40625 C 22.785156 -2.820312 23.03125 -2.421875 23.1875 -2.203125 C 23.34375 -1.992188 23.488281 -1.816406 23.625 -1.671875 L 26.203125 -1.3125 C 26.296875 -0.957031 26.296875 -0.519531 26.203125 0 L 20.140625 0 L 14.75 -9.765625 C 14.039062 -11.117188 13.363281 -12.164062 12.71875 -12.90625 L 12.21875 -12.90625 C 11.007812 -12.90625 9.785156 -12.972656 8.546875 -13.109375 L 8.546875 -1.5625 L 11.796875 -1.21875 C 11.890625 -0.851562 11.890625 -0.410156 11.796875 0.109375 C 10.296875 0.0351562 8.609375 0 6.734375 0 C 5.335938 0 3.640625 0.0234375 1.640625 0.078125 C 1.492188 -0.347656 1.492188 -0.78125 1.640625 -1.21875 L 4.59375 -1.640625 C 4.6875 -2.546875 4.734375 -3.9375 4.734375 -5.8125 L 4.734375 -26.796875 L 1.859375 -27.15625 C 1.753906 -27.507812 1.753906 -27.953125 1.859375 -28.484375 Z M 8.546875 -22.5625 L 8.546875 -14.578125 C 9.285156 -14.484375 10.359375 -14.4375 11.765625 -14.4375 C 12.972656 -14.4375 14.007812 -14.628906 14.875 -15.015625 C 15.75 -15.410156 16.398438 -15.9375 16.828125 -16.59375 C 17.253906 -17.25 17.5625 -17.921875 17.75 -18.609375 C 17.9375 -19.296875 18.03125 -20.019531 18.03125 -20.78125 C 18.03125 -22.820312 17.519531 -24.410156 16.5 -25.546875 C 15.476562 -26.691406 13.78125 -27.265625 11.40625 -27.265625 C 10.53125 -27.265625 9.648438 -27.179688 8.765625 -27.015625 C 8.617188 -25.660156 8.546875 -24.175781 8.546875 -22.5625 Z M 8.546875 -22.5625 "/></g></g><g style="fill:#0f766e;fill-opacity:1;"><g transform="translate(87.50032, 52.447235)"><path style="stroke:none" d="M 16.4375 -10.046875 L 5.234375 -10.046875 C 5.023438 -3.992188 6.84375 -0.96875 10.6875 -0.96875 C 12.332031 -0.96875 14.007812 -1.691406 15.71875 -3.140625 C 16.070312 -2.921875 16.34375 -2.550781 16.53125 -2.03125 C 14.894531 -0.195312 12.816406 0.71875 10.296875 0.71875 C 4.503906 0.71875 1.609375 -2.691406 1.609375 -9.515625 C 1.609375 -12.742188 2.460938 -15.253906 4.171875 -17.046875 C 5.878906 -18.847656 7.875 -19.75 10.15625 -19.75 C 12.65625 -19.75 14.445312 -18.878906 15.53125 -17.140625 C 16.625 -15.410156 17.171875 -13.15625 17.171875 -10.375 C 16.941406 -10.1875 16.695312 -10.078125 16.4375 -10.046875 Z M 10.09375 -18.3125 C 8.851562 -18.3125 7.796875 -17.671875 6.921875 -16.390625 C 6.054688 -15.109375 5.53125 -13.46875 5.34375 -11.46875 L 9.765625 -11.46875 C 11.523438 -11.46875 12.785156 -11.578125 13.546875 -11.796875 C 13.546875 -13.742188 13.25 -15.316406 12.65625 -16.515625 C 12.0625 -17.710938 11.207031 -18.3125 10.09375 -18.3125 Z M 10.09375 -18.3125 "/></g></g><g style="fill:#0f766e;fill-opacity:1;"><g transform="translate(106.071852, 52.447235)"><path style="stroke:none" d="M 10.234375 1.5625 L 9.484375 1.5625 L 2.109375 -17.28125 L -0.140625 -17.71875 C -0.234375 -18.09375 -0.234375 -18.566406 -0.140625 -19.140625 C 1.160156 -19.046875 2.570312 -19 4.09375 -19 C 5.445312 -19 6.882812 -19.035156 8.40625 -19.109375 C 8.550781 -18.628906 8.550781 -18.164062 8.40625 -17.71875 L 6.171875 -17.28125 L 9.046875 -9.09375 C 9.878906 -6.71875 10.425781 -4.992188 10.6875 -3.921875 L 10.765625 -3.921875 C 11.335938 -5.960938 11.894531 -7.625 12.4375 -8.90625 L 15.5 -17.421875 L 12.71875 -17.71875 C 12.625 -18.09375 12.625 -18.566406 12.71875 -19.140625 C 14.03125 -19.046875 15.28125 -19 16.46875 -19 C 17.46875 -19 18.738281 -19.035156 20.28125 -19.109375 C 20.425781 -18.628906 20.425781 -18.164062 20.28125 -17.71875 L 17.609375 -17.328125 Z M 10.234375 1.5625 "/></g></g><g style="fill:#0f766e;fill-opacity:1;"><g transform="translate(125.712745, 52.447235)"><path style="stroke:none" d="M 4.734375 -5.8125 L 4.734375 -26.796875 L 1.859375 -27.1875 C 1.710938 -27.613281 1.710938 -28.046875 1.859375 -28.484375 L 6.734375 -28.375 L 21.140625 -28.375 L 21.171875 -20.09375 C 20.648438 -20 20.210938 -20 19.859375 -20.09375 L 18.171875 -26.546875 L 8.546875 -26.546875 L 8.546875 -16.03125 L 14.25 -16.140625 L 15.078125 -19.640625 C 15.429688 -19.734375 15.867188 -19.734375 16.390625 -19.640625 C 16.296875 -18.304688 16.25 -16.773438 16.25 -15.046875 C 16.25 -13.453125 16.285156 -11.90625 16.359375 -10.40625 C 15.929688 -10.257812 15.503906 -10.257812 15.078125 -10.40625 L 14.296875 -14.109375 L 8.546875 -14.21875 L 8.546875 -1.5625 L 11.796875 -1.21875 C 11.890625 -0.851562 11.890625 -0.410156 11.796875 0.109375 C 10.296875 0.0351562 8.609375 0 6.734375 0 C 5.335938 0 3.640625 0.0234375 1.640625 0.078125 C 1.492188 -0.347656 1.492188 -0.78125 1.640625 -1.21875 L 4.59375 -1.640625 C 4.6875 -2.546875 4.734375 -3.9375 4.734375 -5.8125 Z M 4.734375 -5.8125 "/></g></g><g style="fill:#0f766e;fill-opacity:1;"><g transform="translate(147.884509, 52.447235)"><path style="stroke:none" d="M 7.015625 -22.59375 L 7.015625 -1.8125 L 9.90625 -1.28125 C 10 -0.90625 10 -0.429688 9.90625 0.140625 C 8.40625 0.0664062 6.875 0.03125 5.3125 0.03125 C 4.21875 0.03125 2.671875 0.0546875 0.671875 0.109375 C 0.535156 -0.335938 0.535156 -0.800781 0.671875 -1.28125 L 3.5 -1.671875 C 3.59375 -2.984375 3.640625 -4.492188 3.640625 -6.203125 L 3.640625 -26.625 L 0.71875 -26.984375 C 0.613281 -27.335938 0.613281 -27.785156 0.71875 -28.328125 C 2.351562 -28.453125 4.394531 -28.703125 6.84375 -29.078125 C 7.050781 -28.835938 7.171875 -28.601562 7.203125 -28.375 C 7.078125 -27.75 7.015625 -25.820312 7.015625 -22.59375 Z M 7.015625 -22.59375 "/></g></g><g style="fill:#0f766e;fill-opacity:1;"><g transform="translate(158.364409, 52.447235)"><path style="stroke:none" d="M 7.375 5.28125 L 9.65625 -0.109375 L 2.75 -17.140625 L -0.03125 -17.71875 C -0.15625 -18.1875 -0.15625 -18.660156 -0.03125 -19.140625 C 1.269531 -19.046875 2.859375 -19 4.734375 -19 C 6.421875 -19 8.023438 -19.035156 9.546875 -19.109375 C 9.691406 -18.628906 9.691406 -18.164062 9.546875 -17.71875 L 6.484375 -17.21875 L 9.875 -9.1875 C 10.34375 -8.03125 10.84375 -6.40625 11.375 -4.3125 L 11.4375 -4.3125 C 11.84375 -5.738281 12.398438 -7.304688 13.109375 -9.015625 L 16.21875 -17.328125 L 13.4375 -17.71875 C 13.34375 -18.09375 13.34375 -18.566406 13.4375 -19.140625 C 14.738281 -19.046875 16.007812 -19 17.25 -19 C 18.289062 -19 19.585938 -19.035156 21.140625 -19.109375 C 21.273438 -18.628906 21.273438 -18.164062 21.140625 -17.71875 L 18.3125 -17.328125 L 8.90625 5.703125 C 8.40625 6.890625 7.847656 7.78125 7.234375 8.375 C 6.617188 8.96875 5.800781 9.265625 4.78125 9.265625 C 3.96875 9.265625 3.34375 9.160156 2.90625 8.953125 C 2.46875 8.753906 2.019531 8.375 1.5625 7.8125 C 1.707031 6.5 2.382812 5.453125 3.59375 4.671875 C 4.570312 5.765625 5.40625 6.3125 6.09375 6.3125 C 6.6875 6.3125 7.113281 5.96875 7.375 5.28125 Z M 7.375 5.28125 "/></g></g><g style="fill:#0f766e;fill-opacity:1;"><g transform="translate(178.896457, 52.447235)"><path style="stroke:none" d="M 16.4375 -10.046875 L 5.234375 -10.046875 C 5.023438 -3.992188 6.84375 -0.96875 10.6875 -0.96875 C 12.332031 -0.96875 14.007812 -1.691406 15.71875 -3.140625 C 16.070312 -2.921875 16.34375 -2.550781 16.53125 -2.03125 C 14.894531 -0.195312 12.816406 0.71875 10.296875 0.71875 C 4.503906 0.71875 1.609375 -2.691406 1.609375 -9.515625 C 1.609375 -12.742188 2.460938 -15.253906 4.171875 -17.046875 C 5.878906 -18.847656 7.875 -19.75 10.15625 -19.75 C 12.65625 -19.75 14.445312 -18.878906 15.53125 -17.140625 C 16.625 -15.410156 17.171875 -13.15625 17.171875 -10.375 C 16.941406 -10.1875 16.695312 -10.078125 16.4375 -10.046875 Z M 10.09375 -18.3125 C 8.851562 -18.3125 7.796875 -17.671875 6.921875 -16.390625 C 6.054688 -15.109375 5.53125 -13.46875 5.34375 -11.46875 L 9.765625 -11.46875 C 11.523438 -11.46875 12.785156 -11.578125 13.546875 -11.796875 C 13.546875 -13.742188 13.25 -15.316406 12.65625 -16.515625 C 12.0625 -17.710938 11.207031 -18.3125 10.09375 -18.3125 Z M 10.09375 -18.3125 "/></g></g><g style="fill:#0f766e;fill-opacity:1;"><g transform="translate(197.610569, 52.447235)"><path style="stroke:none" d="M 7.59375 -19.03125 L 7.515625 -15.359375 C 8.109375 -16.453125 8.929688 -17.457031 9.984375 -18.375 C 11.046875 -19.289062 12.054688 -19.75 13.015625 -19.75 C 13.742188 -19.75 14.394531 -19.664062 14.96875 -19.5 C 15.15625 -19.1875 15.25 -18.78125 15.25 -18.28125 C 15.25 -17.5 15.082031 -16.71875 14.75 -15.9375 C 13.894531 -16.164062 13.078125 -16.28125 12.296875 -16.28125 C 10.347656 -16.28125 8.742188 -15.332031 7.484375 -13.4375 L 7.40625 -7.203125 L 7.40625 -1.8125 L 11.375 -1.28125 C 11.46875 -0.90625 11.46875 -0.429688 11.375 0.140625 C 9.875 0.0664062 8.160156 0.03125 6.234375 0.03125 C 4.785156 0.03125 3.0625 0.0546875 1.0625 0.109375 C 0.925781 -0.335938 0.925781 -0.800781 1.0625 -1.28125 L 3.890625 -1.671875 C 3.984375 -2.984375 4.03125 -4.492188 4.03125 -6.203125 L 4.03125 -15.96875 C 4.03125 -16.445312 3.992188 -16.882812 3.921875 -17.28125 L 1.109375 -17.640625 C 1.015625 -17.992188 1.015625 -18.445312 1.109375 -19 C 2.742188 -19.113281 4.785156 -19.363281 7.234375 -19.75 C 7.453125 -19.507812 7.570312 -19.269531 7.59375 -19.03125 Z M 7.59375 -19.03125 "/></g></g></g></svg>