<?xml version="1.0" encoding="UTF-8" standalone="no"?>
<svg
   width="300"
   zoomAndPan="magnify"
   viewBox="0 0 224.87999 75.000003"
   height="100.00001"
   preserveAspectRatio="xMidYMid"
   version="1.2"
   id="svg20"
   xmlns="http://www.w3.org/2000/svg"
   xmlns:svg="http://www.w3.org/2000/svg">
  <defs
     id="defs2">
    <clipPath
       id="88e4b73eb3">
      <path
         d="M 11.496094,18.640625 H 50.476562 V 55 H 11.496094 Z m 0,0"
         id="path1" />
    </clipPath>
    <clipPath
       id="c49ac130bf">
      <path
         d="m 23,42 h 9 v 14.121094 h -9 z m 0,0"
         id="path2" />
    </clipPath>
  </defs>
  <g
     id="6bc073b6a9">
    <g
       clip-rule="nonzero"
       clip-path="url(#88e4b73eb3)"
       id="g3">
      <path
         style="fill:#063d3a;fill-opacity:1;fill-rule:nonzero;stroke:none"
         d="m 39.613281,29.53125 c -4.039062,4.261719 -8.074219,8.523438 -12.152343,12.828125 4.40625,3.921875 8.773437,7.8125 13.199218,11.753906 0.09375,-0.269531 0.164063,-0.441406 0.214844,-0.621093 2.605469,-9.542969 5.203125,-19.085938 7.816406,-28.625 0.570313,-2.082032 1.1875,-4.148438 1.785156,-6.226563 L 11.496094,37.816406 c 0.28125,0.101563 0.445312,0.175782 0.621094,0.21875 3.34375,0.816406 7.226562,1.730469 10.558593,2.585938 z m 0,0"
         id="path3" />
    </g>
    <g
       clip-rule="nonzero"
       clip-path="url(#c49ac130bf)"
       id="g4">
      <path
         style="fill:#063d3a;fill-opacity:1;fill-rule:nonzero;stroke:none"
         d="m 26.242188,44.183594 4.898437,4.359375 -4.898437,7.476562 -3.195313,-13.21875 0.285156,0.132813 2.910157,12.019531 z m 0,0"
         id="path4" />
    </g>
    <g
       style="fill:#063d3a;fill-opacity:1"
       id="g6">
      <g
         transform="translate(62.156073,52.447235)"
         id="g5">
        <path
           style="stroke:none"
           d="m 1.859375,-28.484375 c 0.96875,0 2.515625,-0.04687 4.640625,-0.140625 2.125,-0.09375 4.054688,-0.140625 5.796875,-0.140625 3.613281,0 6.191406,0.71875 7.734375,2.15625 1.539062,1.4375 2.3125,3.445313 2.3125,6.015625 0,1.542969 -0.539062,2.933594 -1.609375,4.171875 -1.0625,1.230469 -2.464844,2.152344 -4.203125,2.765625 1.019531,1.742188 1.976562,3.371094 2.875,4.890625 0.894531,1.523437 1.539062,2.652344 1.9375,3.390625 0.40625,0.730469 0.773438,1.386719 1.109375,1.96875 0.332031,0.585938 0.578125,0.984375 0.734375,1.203125 0.15625,0.210937 0.300781,0.386719 0.4375,0.53125 l 2.578125,0.359375 c 0.09375,0.355469 0.09375,0.792969 0,1.3125 h -6.0625 L 14.75,-9.765625 c -0.710938,-1.351563 -1.386719,-2.398437 -2.03125,-3.140625 h -0.5 c -1.210938,0 -2.433594,-0.06641 -3.671875,-0.203125 V -1.5625 l 3.25,0.34375 c 0.09375,0.367188 0.09375,0.808594 0,1.328125 C 10.296875,0.0351562 8.609375,0 6.734375,0 5.335938,0 3.640625,0.0234375 1.640625,0.078125 c -0.148437,-0.425781 -0.148437,-0.859375 0,-1.296875 L 4.59375,-1.640625 C 4.6875,-2.546875 4.734375,-3.9375 4.734375,-5.8125 v -20.984375 l -2.875,-0.359375 c -0.105469,-0.351562 -0.105469,-0.796875 0,-1.328125 z m 6.6875,5.921875 v 7.984375 c 0.738281,0.09375 1.8125,0.140625 3.21875,0.140625 1.207031,0 2.242187,-0.191406 3.109375,-0.578125 0.875,-0.394531 1.523438,-0.921875 1.953125,-1.578125 0.425781,-0.65625 0.734375,-1.328125 0.921875,-2.015625 0.1875,-0.6875 0.28125,-1.410156 0.28125,-2.171875 0,-2.039062 -0.511719,-3.628906 -1.53125,-4.765625 -1.023438,-1.144531 -2.71875,-1.71875 -5.09375,-1.71875 -0.875,0 -1.757812,0.08594 -2.640625,0.25 -0.148437,1.355469 -0.21875,2.839844 -0.21875,4.453125 z m 0,0"
           id="path5" />
      </g>
    </g>
    <g
       style="fill:#063d3a;fill-opacity:1"
       id="g8">
      <g
         transform="translate(87.50032,52.447235)"
         id="g7">
        <path
           style="stroke:none"
           d="M 16.4375,-10.046875 H 5.234375 c -0.210937,6.054687 1.609375,9.078125 5.453125,9.078125 1.644531,0 3.320312,-0.722656 5.03125,-2.171875 0.351562,0.21875 0.625,0.589844 0.8125,1.109375 -1.636719,1.835938 -3.714844,2.75 -6.234375,2.75 -5.792969,0 -8.6875,-3.410156 -8.6875,-10.234375 0,-3.226563 0.851563,-5.738281 2.5625,-7.53125 C 5.878906,-18.847656 7.875,-19.75 10.15625,-19.75 c 2.5,0 4.289062,0.871094 5.375,2.609375 1.09375,1.730469 1.640625,3.984375 1.640625,6.765625 -0.230469,0.1875 -0.476563,0.296875 -0.734375,0.328125 z M 10.09375,-18.3125 c -1.242188,0 -2.296875,0.640625 -3.171875,1.921875 -0.867187,1.28125 -1.390625,2.921875 -1.578125,4.921875 h 4.421875 c 1.757813,0 3.019531,-0.109375 3.78125,-0.328125 0,-1.945313 -0.296875,-3.519531 -0.890625,-4.71875 -0.59375,-1.195313 -1.449219,-1.796875 -2.5625,-1.796875 z m 0,0"
           id="path6" />
      </g>
    </g>
    <g
       style="fill:#063d3a;fill-opacity:1"
       id="g10">
      <g
         transform="translate(106.07185,52.447235)"
         id="g9">
        <path
           style="stroke:none"
           d="m 10.234375,1.5625 h -0.75 l -7.375,-18.84375 -2.25,-0.4375 c -0.09375,-0.375 -0.09375,-0.847656 0,-1.421875 C 1.160156,-19.046875 2.570312,-19 4.09375,-19 c 1.351562,0 2.789062,-0.03516 4.3125,-0.109375 0.144531,0.480469 0.144531,0.945313 0,1.390625 l -2.234375,0.4375 2.875,8.1875 c 0.832031,2.375 1.378906,4.101562 1.640625,5.171875 h 0.07813 C 11.335938,-5.960938 11.894531,-7.625 12.4375,-8.90625 L 15.5,-17.421875 12.71875,-17.71875 c -0.09375,-0.375 -0.09375,-0.847656 0,-1.421875 1.3125,0.09375 2.5625,0.140625 3.75,0.140625 1,0 2.269531,-0.03516 3.8125,-0.109375 0.144531,0.480469 0.144531,0.945313 0,1.390625 l -2.671875,0.390625 z m 0,0"
           id="path8" />
      </g>
    </g>
    <g
       style="fill:#063d3a;fill-opacity:1"
       id="g12">
      <g
         transform="translate(125.71274,52.447235)"
         id="g11">
        <path
           style="stroke:none"
           d="m 4.734375,-5.8125 v -20.984375 l -2.875,-0.390625 c -0.148437,-0.425781 -0.148437,-0.859375 0,-1.296875 l 4.875,0.109375 h 14.40625 l 0.03125,8.28125 c -0.523437,0.09375 -0.960937,0.09375 -1.3125,0 l -1.6875,-6.453125 h -9.625 v 10.515625 l 5.703125,-0.109375 0.828125,-3.5 c 0.351563,-0.09375 0.789063,-0.09375 1.3125,0 -0.09375,1.335937 -0.140625,2.867187 -0.140625,4.59375 0,1.59375 0.03516,3.140625 0.109375,4.640625 -0.429687,0.148438 -0.855469,0.148438 -1.28125,0 l -0.78125,-3.703125 -5.75,-0.109375 V -1.5625 l 3.25,0.34375 c 0.09375,0.367188 0.09375,0.808594 0,1.328125 C 10.296875,0.0351562 8.609375,0 6.734375,0 5.335938,0 3.640625,0.0234375 1.640625,0.078125 c -0.148437,-0.425781 -0.148437,-0.859375 0,-1.296875 L 4.59375,-1.640625 C 4.6875,-2.546875 4.734375,-3.9375 4.734375,-5.8125 Z m 0,0"
           id="path10" />
      </g>
    </g>
    <g
       style="fill:#063d3a;fill-opacity:1"
       id="g14">
      <g
         transform="translate(147.88451,52.447235)"
         id="g13">
        <path
           style="stroke:none"
           d="M 7.015625,-22.59375 V -1.8125 L 9.90625,-1.28125 C 10,-0.90625 10,-0.429688 9.90625,0.140625 8.40625,0.0664062 6.875,0.03125 5.3125,0.03125 c -1.09375,0 -2.640625,0.0234375 -4.640625,0.078125 -0.136719,-0.445313 -0.136719,-0.910156 0,-1.390625 L 3.5,-1.671875 c 0.09375,-1.3125 0.140625,-2.820313 0.140625,-4.53125 V -26.625 L 0.71875,-26.984375 c -0.105469,-0.351563 -0.105469,-0.800781 0,-1.34375 1.632812,-0.125 3.675781,-0.375 6.125,-0.75 0.207031,0.242187 0.328125,0.476563 0.359375,0.703125 -0.125,0.625 -0.1875,2.554688 -0.1875,5.78125 z m 0,0"
           id="path12" />
      </g>
    </g>
    <g
       style="fill:#063d3a;fill-opacity:1"
       id="g16">
      <g
         transform="translate(158.36441,52.447235)"
         id="g15">
        <path
           style="stroke:none"
           d="M 7.375,5.28125 9.65625,-0.109375 2.75,-17.140625 -0.03125,-17.71875 c -0.125,-0.46875 -0.125,-0.941406 0,-1.421875 C 1.269531,-19.046875 2.859375,-19 4.734375,-19 c 1.6875,0 3.289063,-0.03516 4.8125,-0.109375 0.144531,0.480469 0.144531,0.945313 0,1.390625 l -3.0625,0.5 L 9.875,-9.1875 c 0.46875,1.15625 0.96875,2.78125 1.5,4.875 h 0.0625 c 0.40625,-1.425781 0.960938,-2.992188 1.671875,-4.703125 l 3.109375,-8.3125 -2.78125,-0.390625 c -0.09375,-0.375 -0.09375,-0.847656 0,-1.421875 C 14.738281,-19.046875 16.007812,-19 17.25,-19 c 1.039062,0 2.335938,-0.03516 3.890625,-0.109375 0.132813,0.480469 0.132813,0.945313 0,1.390625 L 18.3125,-17.328125 8.90625,5.703125 C 8.40625,6.890625 7.847656,7.78125 7.234375,8.375 6.617188,8.96875 5.800781,9.265625 4.78125,9.265625 c -0.8125,0 -1.4375,-0.105469 -1.875,-0.3125 C 2.46875,8.753906 2.019531,8.375 1.5625,7.8125 1.707031,6.5 2.382812,5.453125 3.59375,4.671875 c 0.976562,1.09375 1.8125,1.640625 2.5,1.640625 0.59375,0 1.019531,-0.34375 1.28125,-1.03125 z m 0,0"
           id="path14" />
      </g>
    </g>
    <g
       style="fill:#063d3a;fill-opacity:1"
       id="g18">
      <g
         transform="translate(178.89646,52.447235)"
         id="g17">
        <path
           style="stroke:none"
           d="M 16.4375,-10.046875 H 5.234375 c -0.210937,6.054687 1.609375,9.078125 5.453125,9.078125 1.644531,0 3.320312,-0.722656 5.03125,-2.171875 0.351562,0.21875 0.625,0.589844 0.8125,1.109375 -1.636719,1.835938 -3.714844,2.75 -6.234375,2.75 -5.792969,0 -8.6875,-3.410156 -8.6875,-10.234375 0,-3.226563 0.851563,-5.738281 2.5625,-7.53125 C 5.878906,-18.847656 7.875,-19.75 10.15625,-19.75 c 2.5,0 4.289062,0.871094 5.375,2.609375 1.09375,1.730469 1.640625,3.984375 1.640625,6.765625 -0.230469,0.1875 -0.476563,0.296875 -0.734375,0.328125 z M 10.09375,-18.3125 c -1.242188,0 -2.296875,0.640625 -3.171875,1.921875 -0.867187,1.28125 -1.390625,2.921875 -1.578125,4.921875 h 4.421875 c 1.757813,0 3.019531,-0.109375 3.78125,-0.328125 0,-1.945313 -0.296875,-3.519531 -0.890625,-4.71875 -0.59375,-1.195313 -1.449219,-1.796875 -2.5625,-1.796875 z m 0,0"
           id="path16" />
      </g>
    </g>
    <g
       style="fill:#063d3a;fill-opacity:1"
       id="g20">
      <g
         transform="translate(197.61057,52.447235)"
         id="g19">
        <path
           style="stroke:none"
           d="m 7.59375,-19.03125 -0.078125,3.671875 c 0.59375,-1.09375 1.414063,-2.097656 2.46875,-3.015625 1.0625,-0.914062 2.070313,-1.375 3.03125,-1.375 0.726563,0 1.378906,0.08594 1.953125,0.25 0.1875,0.3125 0.28125,0.71875 0.28125,1.21875 0,0.78125 -0.167969,1.5625 -0.5,2.34375 -0.855469,-0.226562 -1.671875,-0.34375 -2.453125,-0.34375 -1.949219,0 -3.554687,0.949219 -4.8125,2.84375 L 7.40625,-7.203125 V -1.8125 l 3.96875,0.53125 c 0.09375,0.375 0.09375,0.851562 0,1.421875 C 9.875,0.0664062 8.160156,0.03125 6.234375,0.03125 4.785156,0.03125 3.0625,0.0546875 1.0625,0.109375 c -0.136719,-0.445313 -0.136719,-0.910156 0,-1.390625 l 2.828125,-0.390625 c 0.09375,-1.3125 0.140625,-2.820313 0.140625,-4.53125 v -9.765625 c 0,-0.476562 -0.039062,-0.914062 -0.109375,-1.3125 l -2.8125,-0.359375 c -0.09375,-0.351563 -0.09375,-0.804687 0,-1.359375 1.632813,-0.113281 3.675781,-0.363281 6.125,-0.75 0.21875,0.242188 0.335937,0.480469 0.359375,0.71875 z m 0,0"
           id="path18" />
      </g>
    </g>
  </g>
</svg>
